<?xml version="1.0" encoding="UTF-8"?>
<svg width="28px" height="21px" viewBox="0 0 28 21" version="1.1" xmlns="http://www.w3.org/2000/svg" xmlns:xlink="http://www.w3.org/1999/xlink">
    <title>toman</title>
    <g id="Page-1" stroke="none" stroke-width="1" fill="none" fill-rule="evenodd">
        <g id="toman" transform="translate(0.0049, 0)" fill="#FFFFFF" fill-rule="nonzero">
            <path d="M13.4331478,13.6024 C13.3918478,12.9165 13.2268478,12.2728 12.9174478,11.6818 C12.6183478,11.0908 12.1852478,10.6476 11.6386478,10.3416 C11.1745478,10.0989 10.7104478,9.99335 10.2463478,10.0356 C9.78224782,10.0672 9.36972782,10.2255 9.00875782,10.521 C8.64779782,10.8059 8.38996782,11.1964 8.23526782,11.6712 L7.61647782,13.7607 C7.51334782,14.1511 7.32770782,14.4255 7.04924782,14.5838 C6.77078782,14.7421 6.38920782,14.816 5.90447782,14.816 L5.37850782,14.816 C4.91441782,14.816 4.57407782,14.7843 4.33687782,14.6999 C4.09966782,14.626 3.91402782,14.4783 3.76964782,14.2461 C3.62525782,14.014 3.51181782,13.6446 3.40868782,13.1486 C3.39836782,13.1064 3.38805782,13.0537 3.38805782,13.0114 C3.37774782,12.9692 3.37774782,12.9165 3.36742782,12.8743 L3.11991782,11.4391 C3.01677782,11.4074 2.91364782,11.3758 2.82082782,11.3441 L2.81051782,11.3441 L2.78988782,11.3336 C2.76926782,11.323 2.73832782,11.3124 2.69706782,11.3019 C2.49080782,11.2175 2.28454782,11.1225 2.07827782,10.9959 C1.82044782,10.8481 1.58324782,10.6793 1.35635782,10.4893 L1.42854782,10.8903 L1.82044782,13.1908 C1.96483782,14.0562 2.18140782,14.7315 2.44955782,15.2275 C2.72800782,15.7235 3.09928782,16.0823 3.57369782,16.2934 C4.04810782,16.515 4.64626782,16.6205 5.37850782,16.6205 L5.90447782,16.6205 C6.72953782,16.6205 7.35864782,16.4622 7.81242782,16.1562 C8.07025782,15.9768 8.28683782,15.7446 8.47246782,15.4491 L10.5763478,16.5361 C10.9270478,16.7155 11.2673478,16.7999 11.6076478,16.7893 C11.9480478,16.7682 12.2574478,16.6521 12.5358478,16.4411 C12.8143478,16.2195 13.0309478,15.9346 13.1753478,15.5652 C13.3815478,14.9426 13.4743478,14.2989 13.4331478,13.6024 Z M11.9789478,14.8793 C11.9480478,14.9954 11.9067478,15.0798 11.8655478,15.1431 C11.8242478,15.2064 11.7727478,15.2381 11.7108478,15.2381 C11.6489478,15.2381 11.5664478,15.217 11.4633478,15.1642 L9.03969782,13.9084 L9.45222782,12.5788 C9.55535782,12.2939 9.68942782,12.0617 9.86475782,11.8823 C10.0400478,11.7029 10.2257478,11.5974 10.4319478,11.5552 C10.6382478,11.513 10.8445478,11.5446 11.0507478,11.629 C11.3498478,11.7662 11.6076478,12.0195 11.8139478,12.3783 C12.0202478,12.7371 12.1439478,13.1486 12.1749478,13.6024 C12.2264478,14.0667 12.1542478,14.4888 11.9789478,14.8793 Z" id="Shape"></path>
            <polygon id="Path" points="23.4473478 7.95682 25.3140478 7.96737 25.3140478 6.58496 23.4473478 6.58496 22.7873478 6.58496 20.8897478 6.58496 20.8897478 7.94627 23.4473478 7.96737"></polygon>
            <path d="M26.6032478,12.3047 L25.4791478,9.63489 L24.0352478,10.363 L25.1491478,12.9801 C25.3656478,13.4655 25.4481478,13.8349 25.4069478,14.0882 C25.3656478,14.352 25.2316478,14.5208 25.0047478,14.6263 C24.7778478,14.7213 24.4684478,14.7741 24.0765478,14.7741 L21.4157478,14.7741 L21.2507478,14.7741 L20.5597478,14.7741 L20.0543478,13.3284 C19.7862478,12.5686 19.4974478,11.9354 19.2087478,11.4289 C18.9096478,10.9223 18.5589478,10.5319 18.1361478,10.2681 C17.7236478,9.99368 17.2285478,9.8565 16.6716478,9.84594 C16.0734478,9.84594 15.5475478,10.0359 15.0834478,10.4052 C14.6193478,10.7746 14.2686478,11.26 14.0314478,11.8404 C13.7942478,12.4314 13.7014478,13.0434 13.7427478,13.6871 C13.7942478,14.6263 14.1036478,15.3439 14.6605478,15.8294 C15.2174478,16.3148 15.9806478,16.5575 16.9397478,16.5575 L19.5181478,16.5575 L19.5593478,16.663 C19.6934478,17.1273 19.6624478,17.4861 19.4768478,17.75 C19.2808478,18.0138 18.8683478,18.2565 18.2186478,18.4676 C17.5689478,18.6786 16.5582478,18.9213 15.1659478,19.1851 C15.1143478,19.1957 15.0112478,19.2168 14.8668478,19.259 L15.1556478,21.0002 C15.1968478,20.9897 15.2484478,20.9791 15.3103478,20.9791 C15.3618478,20.9686 15.4134478,20.9686 15.4650478,20.958 C17.1254478,20.6414 18.4042478,20.2826 19.3015478,19.9027 C20.1987478,19.5228 20.7866478,19.0268 21.0753478,18.4253 C21.3125478,17.9294 21.3538478,17.3067 21.1785478,16.5786 L21.2713478,16.5786 L21.4363478,16.5786 L24.0971478,16.5786 C24.8500478,16.5786 25.4894478,16.4098 26.0051478,16.0615 C26.5310478,15.7133 26.8507478,15.2173 26.9848478,14.563 C27.0776478,13.8982 26.9642478,13.149 26.6032478,12.3047 Z M16.9191478,14.7741 C16.3416478,14.7741 15.9394478,14.6791 15.7022478,14.4892 C15.4650478,14.2992 15.3206478,13.9826 15.2896478,13.55 C15.2690478,13.2334 15.3103478,12.9168 15.4031478,12.6319 C15.5062478,12.3364 15.6609478,12.1042 15.8775478,11.9143 C16.0941478,11.7349 16.3519478,11.6399 16.6716478,11.6399 C17.1048478,11.6399 17.4657478,11.8193 17.7339478,12.1676 C18.0020478,12.5158 18.2805478,13.1067 18.5795478,13.9299 L18.8786478,14.7741 L16.9191478,14.7741 Z" id="Shape"></path>
            <polygon id="Path" points="3.12011782 2.42714 3.12011782 0.21106 5.20338782 0.232165 5.20338782 2.42714"></polygon>
            <path d="M3.32640782,0.422111 L4.99714782,0.443216 L4.99714782,2.21608 L3.32640782,2.21608 L3.32640782,0.422111 Z M2.91387782,0 L2.91387782,0.422111 L2.91387782,2.21608 L2.91387782,2.63819 L3.32640782,2.63819 L4.99714782,2.63819 L5.40967782,2.63819 L5.40967782,2.21608 L5.40967782,0.443216 L5.40967782,0.0211055 L4.99714782,0.0211055 L3.33671782,0 L2.91387782,0 Z" id="Shape"></path>
            <path d="M10.5250478,8.04102 C10.3394478,8.58976 9.98876782,9.03298 9.45247782,9.38122 C8.91619782,9.72946 8.14270782,10.0566 7.12169782,10.3837 C6.98762782,10.4154 6.85354782,10.4576 6.71947782,10.4998 C6.58540782,10.542 6.45133782,10.5842 6.31726782,10.6264 C6.10068782,10.6898 5.88410782,10.7425 5.67784782,10.7847 C5.28594782,10.8692 4.91466782,10.9008 4.55370782,10.9008 C4.39900782,10.9008 4.25461782,10.8903 4.11023782,10.8797 C3.73895782,10.8481 3.38830782,10.7636 3.05828782,10.637 C3.02734782,10.6264 2.99640782,10.6159 2.96546782,10.6053 C2.77982782,10.5315 2.60450782,10.447 2.42918782,10.3521 C1.96508782,10.0883 1.57318782,9.74001 1.24316782,9.33901 C1.20190782,9.2968 1.17096782,9.24403 1.14002782,9.20182 C0.748128818,8.67418 0.449044818,8.04102 0.242780818,7.29177 C-0.128495182,5.8777 -0.0769288827,4.28424 0.418105818,2.52193 L1.91351782,3.00735 C1.75882782,3.54554 1.65568782,4.06263 1.60412782,4.55861 C1.52161782,5.25509 1.54224782,5.93047 1.67631782,6.54253 C1.85163782,7.33398 2.18166782,7.94604 2.66638782,8.38926 C2.81076782,8.51589 2.96546782,8.63197 3.13047782,8.72695 C3.33674782,8.84303 3.55332782,8.938 3.79052782,9.00132 C4.03804782,9.06464 4.30618782,9.0963 4.57432782,9.0963 C4.83215782,9.0963 5.08998782,9.06464 5.37876782,9.01187 C5.54377782,8.98022 5.70878782,8.938 5.87379782,8.88524 C5.99755782,8.84303 6.11099782,8.80082 6.22444782,8.76916 C6.32757782,8.7375 6.44102782,8.7164 6.56477782,8.69529 C7.31764782,8.45258 7.87455782,8.25207 8.23552782,8.08323 C8.59648782,7.91439 8.82337782,7.71388 8.93681782,7.46062 C9.03995782,7.2179 9.02963782,6.86966 8.89556782,6.41589 C8.75118782,6.00434 8.18395782,4.47419 7.19388782,1.84655 L8.59648782,1.11841 C9.56592782,3.65107 10.1537478,5.23398 10.3806478,5.8777 C10.6488478,6.77469 10.7003478,7.49228 10.5250478,8.04102 Z" id="Path"></path>
        </g>
    </g>
</svg>